<?xml version="1.0" encoding="UTF-8"?>
<svg id="Calque_1" xmlns="http://www.w3.org/2000/svg" version="1.1" viewBox="0 0 177.7 356.32">
  <!-- Generator: Adobe Illustrator 29.2.1, SVG Export Plug-In . SVG Version: 2.1.0 Build 116)  -->
  <defs>
    <style>
      .st0 {
        fill: #ce633f;
      }

      .st1 {
        fill: #f8c13b;
      }

      .st2 {
        fill: #5f4074;
      }
    </style>
  </defs>
  <path class="st0" d="M129.52,30.16c-10.54-2.09-13.6,32.28-2.19,33.77-1.54.53-2.39.84-4.06.94-15.27.86-12.01-31.46-4.06-35.64,2.53-1.33,3.82,1.45,2.11-3.83-7.12-21.95-45.34-24.34-57.55-5.21-1.01,1.58-4.63,7.34-.5,5.91-4.56,8.26-6.71,22.79-7.81,32.2-4.97-9-2.52-24.29,4.69-31.57-1.68.42-4.44.86-5.94,1.56,5.22-39.18,71.1-36.82,75.32,1.88Z"/>
  <path class="st1" d="M127.33,63.93c-11.41-1.49-8.35-35.85,2.19-33.77,1.84.36,5.02,4.77,5.77,6.57,3.64,8.69,2.14,23.7-7.96,27.19Z"/>
  <path class="st1" d="M54.19,28.29c1.5-.7,4.26-1.14,5.94-1.56-7.21,7.29-9.66,22.57-4.69,31.57-.08.71.08,1.48,0,2.19-13.6-2.51-11.64-27.35-1.25-32.2Z"/>
  <path class="st2" d="M176.08,141.46c-3.33-28.01-15.23-47.77-38.82-62.73-5.72-3.62-14.23-5.05-13.99-13.87-15.27.86-12.01-31.46-4.06-35.64-8.96-22.1-44.51-23.86-55.94-3.13-4.56,8.26-6.71,22.79-7.81,32.2-.08.71.08,1.48,0,2.19-.42,3.75.59,15.42-1.92,16.99-6.26,3.91-8.39,5.36-8.39,5.36-11.7,7.9-21.25,17.41-28.57,29.58-10.41,17.29-24.29,53.36-.81,66.1,22.61,12.27,43.96-16.05,54.2-32.7,4.06-6.6,8.09-17.53,12.43-22.9,2.97-3.68,10.19-6.31,9.3-11.91-.97-6.12-10.1,4-10.86.21-.59-2.95,9.91-2.7,8.53-8.5-.26-1.08-1.52-2.55-2.41-2.77-2.1-.52-9.63,4.31-10.2,2.21-.83-3.05,9.26-2.38,8.71-8.06-.4-4.16-3.63-4.54-7.36-2.9-.73.32-6.52,4.15-6.41,1.05.09-2.56,21.78-7.74,21.13-13.62-.58-5.27-10.85-2.41-13.98-1.24-17.08,6.41-33.88,36.72-46.22,51.09-1.78,2.08-8.22,9.96-9.97,10.97-1.91,1.1-2.73.14-1.73-1.72,20.06-16.23,31.96-49.97,54.82-61.46,4.85-2.44,14.02-6.16,18.27-1.06,6.38,7.64-9.15,12.63-9.19,13.58,0,.18,2.05,1.58,2.45,2.61.83,2.12.15,5.34.5,6.29.3.81,3.21,2.01,3.77,4.38.42,1.78-.34,3.8-.11,4.78.12.51,1.75,1.7,2.16,3.18,2.08,7.6-5.87,9.49-9.34,14.14-2.53,3.39-4.03,8.69-6.22,12.52-10.49,18.31-23.64,39.56-44.42,46.87-1.98,27.27-4.82,54.45-6.92,81.71,0,0,0,0,0,0-2.16,15.52-2.71,31.26-3.75,46.89-.31,4.68-.18,18.65-1.49,22.12-1.02,2.72-15.23,9.59-18.37,12.27-5.22,4.45-3.59,8.72,3.12,9.4,6.68.68,41.03-.44,45.59-3.5,2.27-1.52,3.12-3.96,3.86-6.45,4.96-16.76,7.74-37.29,11.86-54.72,4.65-19.64,9.38-39.44,14.51-58.96.6-2.27,3.75-15.21,4.52-16.11,1.52-1.75,4.19-.07,4.43,1.79,5.86,26.96,10.55,54.59,15.11,81.13,1.26,7.36,6.79,48.09,9.36,51.66,3.11,4.32,13.74,3.9,18.75,4.22,7.48.82,16.04,1.55,23.61,1.26,2.76-.11,9.28.02,10.46-3.14-.36.02-.56.16-.73.36.17-.2.38-.35.73-.36,2.73-7.31-14.32-12.73-18.44-16.26-2.82-2.41-1.91-6.5-1.89-9.86.13-20.58,2.29-41.38,2.21-62.02,0-1.07-.72-2.02-1.76-2.28-1.56-.39-3.72-.73-4.5-1.49-5.26-4.55-6.05-13.81-6.56-20.32-.89-11.32-.69-22.96-.37-34.63.19-5.32.37-10.62.42-15.87.13-6.34.16-12.66-.06-18.9-.21-5.99-.4-12.01-.94-17.97-.23-2.57-2.84-17.53-2.5-18.39.14-.35,1.15-.62,1.42-.54,1.13.32,2.06,6.94,2.29,8.35,5.26,32.47-.78,67.21,2.51,99.35.53,5.17.23,14.6,5.88,17.63,8.41,4.51,4.19-13.24,5.54-14.67.26-.27.57-.27.92-.29,2.38-.13.52,12.64,1.15,13.45.46.6,4.64-1.59,5.17-2.17.78-.86,1.7-4.1,1.7-5.17v-3.29c0-1.22,1.78-1.44,2.04-.25.53,2.39-1.27,7.28,2.78,2.73,3.19-3.59,7.66-37,8.58-43.94,1.38-10.49,2.75-21.09,3.17-31.69.05-1.34.1-2.69.14-4.06-.04,1.36-.08,2.71-.13,4.06,1.06-10.99,1.04-22.27-.94-33.14ZM71.3,36.48c4-1.03,4.27,5.49,1.42,6.12-3.91.86-4.16-5.42-1.42-6.12ZM86.97,60.59c-.5,1.38-6.47-1.26-8.54-1.36-1.65-.07-6.78,1.01-7.13.9-2.74-.87.54-3.29,2.2-3.62,2.24-.43,14.8.39,13.46,4.07ZM93.96,44.18c-2.74.05-3.69-6-1.09-6.77,4.21-1.25,4.61,6.7,1.09,6.77ZM167.38,353.7c-.16.23-.32.49-.59.71.27-.22.43-.48.59-.71Z"/>
</svg>